<svg width='1000' height='1000' viewBox='0 0 1000 1000' xmlns='http://www.w3.org/2000/svg'>
<rect width="100%" height="100%" fill="#1a1a1a"/>
<path d="M 240,500 C 257,281 275, 281 293,500 C 304,611 316, 611 328,500 C 356,189 384, 189 412,500 C 421,892 430, 892 439,500 C 459,-54 479, -54 499,500 C 519,703 539, 703 559,500 C 578,240 597, 240 616,500 C 636,919 657, 919 678,500 C 684,128 691, 128 698,500 C 718,741 739, 741 760,500 " stroke-width="50" fill="none" stroke="url(#gradient)" stroke-linecap="round"/>
<linearGradient id="gradient" x1="0%" y1="0%" x2="100%" y2="0%">
<stop offset="0.00%" stop-color="rgb(255, 0, 0)"/>
<stop offset="16.67%" stop-color="rgb(255, 142, 0)"/>
<stop offset="33.33%" stop-color="rgb(255, 239, 0)"/>
<stop offset="50.00%" stop-color="rgb(0, 241, 29)"/>
<stop offset="66.67%" stop-color="rgb(0, 255, 255)"/>
<stop offset="83.33%" stop-color="rgb(0, 64, 255)"/>
<stop offset="100.0%" stop-color="rgb(128, 0, 255)"/>
</linearGradient>

</svg>
