<svg width='1000' height='1000' viewBox='0 0 1000 1000' xmlns='http://www.w3.org/2000/svg'>
<rect width="100%" height="100%" fill="#1a1a1a"/>
<path d="M 296,500 C 312,71 329, 71 346,500 C 365,941 384, 941 404,500 C 417,-11 431, -11 445,500 C 452,696 459, 696 466,500 C 486,83 506, 83 527,500 C 545,658 564, 658 583,500 C 602,136 621, 136 640,500 C 654,713 668, 713 683,500 C 690,379 697, 379 704,500 " stroke-width="32" fill="none" stroke="url(#gradient)" stroke-linecap="round"/>
<linearGradient id="gradient" x1="0%" y1="0%" x2="100%" y2="0%">
<stop offset="0.00%" stop-color="rgb(255, 95, 109)"/>
<stop offset="25.00%" stop-color="rgb(255, 140, 105)"/>
<stop offset="50.00%" stop-color="rgb(255, 160, 122)"/>
<stop offset="75.00%" stop-color="rgb(255, 182, 193)"/>
<stop offset="100.0%" stop-color="rgb(255, 192, 203)"/>
</linearGradient>

</svg>
