<svg width='1000' height='1000' viewBox='0 0 1000 1000' xmlns='http://www.w3.org/2000/svg'>
<rect width="100%" height="100%" fill="#1a1a1a"/>
<path d="M 126,500 C 136,-41 146, -41 156,500 C 180,1064 204, 1064 229,500 C 255,359 281, 359 307,500 C 326,968 345, 968 365,500 C 376,61 388, 61 400,500 C 416,956 433, 956 450,500 C 472,57 495, 57 518,500 C 525,962 533, 962 541,500 C 570,140 599, 140 629,500 C 645,635 661, 635 677,500 C 689,112 701, 112 713,500 C 740,729 767, 729 794,500 C 806,363 818, 363 830,500 C 844,1001 858, 1001 873,500 " stroke-width="29" fill="none" stroke="url(#gradient)" stroke-linecap="round"/>
<linearGradient id="gradient" x1="0%" y1="0%" x2="100%" y2="0%">
<stop offset="0.00%" stop-color="rgb(30, 144, 255)"/>
<stop offset="25.00%" stop-color="rgb(0, 206, 209)"/>
<stop offset="50.00%" stop-color="rgb(32, 178, 170)"/>
<stop offset="75.00%" stop-color="rgb(72, 209, 204)"/>
<stop offset="100.0%" stop-color="rgb(0, 255, 255)"/>
</linearGradient>

</svg>
