<svg width='1000' height='1000' viewBox='0 0 1000 1000' xmlns='http://www.w3.org/2000/svg'>
<rect width="100%" height="100%" fill="#1a1a1a"/>
<path d="M 237,500 C 244,193 252, 193 260,500 C 283,784 306, 784 330,500 C 351,140 372, 140 393,500 C 412,798 432, 798 452,500 C 483,369 515, 369 547,500 C 572,680 598, 680 624,500 C 636,253 648, 253 660,500 C 674,833 688, 833 703,500 C 723,-11 743, -11 763,500 " stroke-width="57" fill="none" stroke="url(#gradient)" stroke-linecap="round"/>
<linearGradient id="gradient" x1="0%" y1="0%" x2="100%" y2="0%">
<stop offset="0.00%" stop-color="rgb(255, 0, 0)"/>
<stop offset="16.67%" stop-color="rgb(255, 142, 0)"/>
<stop offset="33.33%" stop-color="rgb(255, 239, 0)"/>
<stop offset="50.00%" stop-color="rgb(0, 241, 29)"/>
<stop offset="66.67%" stop-color="rgb(0, 255, 255)"/>
<stop offset="83.33%" stop-color="rgb(0, 64, 255)"/>
<stop offset="100.0%" stop-color="rgb(128, 0, 255)"/>
</linearGradient>

</svg>
