<svg width='1000' height='1000' viewBox='0 0 1000 1000' xmlns='http://www.w3.org/2000/svg'>
<rect width="100%" height="100%" fill="#1a1a1a"/>
<path d="M 261,500 C 269,-66 277, -66 286,500 C 297,876 309, 876 321,500 C 331,244 341, 244 351,500 C 365,690 379, 690 393,500 C 413,57 433, 57 453,500 C 469,652 486, 652 503,500 C 526,30 549, 30 573,500 C 604,866 636, 866 668,500 C 691,99 714, 99 738,500 " stroke-width="66" fill="none" stroke="url(#gradient)" stroke-linecap="round"/>
<linearGradient id="gradient" x1="0%" y1="0%" x2="100%" y2="0%">
<stop offset="0.00%" stop-color="rgb(30, 144, 255)"/>
<stop offset="25.00%" stop-color="rgb(0, 206, 209)"/>
<stop offset="50.00%" stop-color="rgb(32, 178, 170)"/>
<stop offset="75.00%" stop-color="rgb(72, 209, 204)"/>
<stop offset="100.0%" stop-color="rgb(0, 255, 255)"/>
</linearGradient>

</svg>
