<svg width='1000' height='1000' viewBox='0 0 1000 1000' xmlns='http://www.w3.org/2000/svg'>
<rect width="100%" height="100%" fill="#1a1a1a"/>
<path d="M 210,500 C 233,332 257, 332 281,500 C 311,609 342, 609 373,500 C 386,110 399, 110 412,500 C 432,715 452, 715 473,500 C 493,395 514, 395 535,500 C 560,1033 585, 1033 611,500 C 622,397 633, 397 644,500 C 670,1011 696, 1011 723,500 C 738,359 754, 359 770,500 C 776,984 783, 984 790,500 " stroke-width="72" fill="none" stroke="url(#gradient)" stroke-linecap="round"/>
<linearGradient id="gradient" x1="0%" y1="0%" x2="100%" y2="0%">
<stop offset="0.00%" stop-color="rgb(30, 144, 255)"/>
<stop offset="25.00%" stop-color="rgb(0, 206, 209)"/>
<stop offset="50.00%" stop-color="rgb(32, 178, 170)"/>
<stop offset="75.00%" stop-color="rgb(72, 209, 204)"/>
<stop offset="100.0%" stop-color="rgb(0, 255, 255)"/>
</linearGradient>

</svg>
