<svg width='1000' height='1000' viewBox='0 0 1000 1000' xmlns='http://www.w3.org/2000/svg'>
<rect width="100%" height="100%" fill="#1a1a1a"/>
<path d="M 180,500 C 211,277 242, 277 273,500 C 297,1096 321, 1096 345,500 C 352,324 359, 324 366,500 C 374,1050 382, 1050 390,500 C 420,273 450, 273 481,500 C 505,1013 529, 1013 554,500 C 586,-29 619, -29 652,500 C 683,1033 714, 1033 746,500 C 770,297 795, 297 820,500 " stroke-width="67" fill="none" stroke="url(#gradient)" stroke-linecap="round"/>
<linearGradient id="gradient" x1="0%" y1="0%" x2="100%" y2="0%">
<stop offset="0.00%" stop-color="rgb(255, 0, 0)"/>
<stop offset="16.67%" stop-color="rgb(255, 142, 0)"/>
<stop offset="33.33%" stop-color="rgb(255, 239, 0)"/>
<stop offset="50.00%" stop-color="rgb(0, 241, 29)"/>
<stop offset="66.67%" stop-color="rgb(0, 255, 255)"/>
<stop offset="83.33%" stop-color="rgb(0, 64, 255)"/>
<stop offset="100.0%" stop-color="rgb(128, 0, 255)"/>
</linearGradient>

</svg>
