<svg width='1000' height='1000' viewBox='0 0 1000 1000' xmlns='http://www.w3.org/2000/svg'>
<rect width="100%" height="100%" fill="#1a1a1a"/>
<path d="M 232,500 C 252,-47 272, -47 292,500 C 316,849 340, 849 364,500 C 372,20 380, 20 389,500 C 397,607 405, 607 414,500 C 420,334 427, 334 434,500 C 465,760 496, 760 528,500 C 558,61 588, 61 619,500 C 634,1064 649, 1064 665,500 C 679,102 694, 102 709,500 C 728,1001 748, 1001 768,500 " stroke-width="56" fill="none" stroke="url(#gradient)" stroke-linecap="round"/>
<linearGradient id="gradient" x1="0%" y1="0%" x2="100%" y2="0%">
<stop offset="0.00%" stop-color="rgb(30, 144, 255)"/>
<stop offset="25.00%" stop-color="rgb(0, 206, 209)"/>
<stop offset="50.00%" stop-color="rgb(32, 178, 170)"/>
<stop offset="75.00%" stop-color="rgb(72, 209, 204)"/>
<stop offset="100.0%" stop-color="rgb(0, 255, 255)"/>
</linearGradient>

</svg>
